{
	"asset":{
		"generator":"Khronos glTF Blender I/O v4.2.57",
		"version":"2.0"
	},
	"scene":0,
	"scenes":[
		{
			"name":"Scene",
			"nodes":[
				0
			]
		}
	],
	"nodes":[
		{
			"mesh":0,
			"name":"short forniture",
			"translation":[
				-8.483748435974121,
				0.005551735870540142,
				9.61387825012207
			]
		}
	],
	"meshes":[
		{
			"name":"Cube.003",
			"primitives":[
				{
					"attributes":{
						"POSITION":0,
						"NORMAL":1,
						"TEXCOORD_0":2
					},
					"indices":3
				}
			]
		}
	],
	"accessors":[
		{
			"bufferView":0,
			"componentType":5126,
			"count":424,
			"max":[
				0.247633159160614,
				1.2366366386413574,
				1.1132148504257202
			],
			"min":[
				-0.24218755960464478,
				0,
				-1.1132148504257202
			],
			"type":"VEC3"
		},
		{
			"bufferView":1,
			"componentType":5126,
			"count":424,
			"type":"VEC3"
		},
		{
			"bufferView":2,
			"componentType":5126,
			"count":424,
			"type":"VEC2"
		},
		{
			"bufferView":3,
			"componentType":5123,
			"count":678,
			"type":"SCALAR"
		}
	],
	"bufferViews":[
		{
			"buffer":0,
			"byteLength":5088,
			"byteOffset":0,
			"target":34962
		},
		{
			"buffer":0,
			"byteLength":5088,
			"byteOffset":5088,
			"target":34962
		},
		{
			"buffer":0,
			"byteLength":3392,
			"byteOffset":10176,
			"target":34962
		},
		{
			"buffer":0,
			"byteLength":1356,
			"byteOffset":13568,
			"target":34963
		}
	],
	"buffers":[
		{
			"byteLength":14924,
			"uri":"livingroom_tv.bin"
		}
	]
}
