{
	"asset":{
		"generator":"Khronos glTF Blender I/O v4.2.57",
		"version":"2.0"
	},
	"scene":0,
	"scenes":[
		{
			"name":"Scene",
			"nodes":[
				0
			]
		}
	],
	"nodes":[
		{
			"mesh":0,
			"name":"table",
			"translation":[
				-10.744197845458984,
				0.0010266304016113281,
				1.7408785820007324
			]
		}
	],
	"meshes":[
		{
			"name":"Cylinder.001",
			"primitives":[
				{
					"attributes":{
						"POSITION":0,
						"NORMAL":1,
						"TEXCOORD_0":2
					},
					"indices":3
				}
			]
		}
	],
	"accessors":[
		{
			"bufferView":0,
			"componentType":5126,
			"count":1500,
			"max":[
				0.9510565400123596,
				1.4733736515045166,
				1.000000238418579
			],
			"min":[
				-0.9510565400123596,
				0,
				-0.9999997615814209
			],
			"type":"VEC3"
		},
		{
			"bufferView":1,
			"componentType":5126,
			"count":1500,
			"type":"VEC3"
		},
		{
			"bufferView":2,
			"componentType":5126,
			"count":1500,
			"type":"VEC2"
		},
		{
			"bufferView":3,
			"componentType":5123,
			"count":3660,
			"type":"SCALAR"
		}
	],
	"bufferViews":[
		{
			"buffer":0,
			"byteLength":18000,
			"byteOffset":0,
			"target":34962
		},
		{
			"buffer":0,
			"byteLength":18000,
			"byteOffset":18000,
			"target":34962
		},
		{
			"buffer":0,
			"byteLength":12000,
			"byteOffset":36000,
			"target":34962
		},
		{
			"buffer":0,
			"byteLength":7320,
			"byteOffset":48000,
			"target":34963
		}
	],
	"buffers":[
		{
			"byteLength":55320,
			"uri":"livingroom_table.bin"
		}
	]
}
