{
	"asset":{
		"generator":"Khronos glTF Blender I/O v4.2.57",
		"version":"2.0"
	},
	"scene":0,
	"scenes":[
		{
			"name":"Scene",
			"nodes":[
				0
			]
		}
	],
	"nodes":[
		{
			"mesh":0,
			"name":"short forniture",
			"translation":[
				-8.483748435974121,
				0.005551735870540142,
				9.61387825012207
			]
		}
	],
	"meshes":[
		{
			"name":"Cube.003",
			"primitives":[
				{
					"attributes":{
						"POSITION":0,
						"NORMAL":1,
						"TEXCOORD_0":2
					},
					"indices":3
				}
			]
		}
	],
	"accessors":[
		{
			"bufferView":0,
			"componentType":5126,
			"count":528,
			"max":[
				0.24763333797454834,
				1.2366366386413574,
				1.112542986869812
			],
			"min":[
				-0.24218791723251343,
				0,
				-1.112542986869812
			],
			"type":"VEC3"
		},
		{
			"bufferView":1,
			"componentType":5126,
			"count":528,
			"type":"VEC3"
		},
		{
			"bufferView":2,
			"componentType":5126,
			"count":528,
			"type":"VEC2"
		},
		{
			"bufferView":3,
			"componentType":5123,
			"count":972,
			"type":"SCALAR"
		}
	],
	"bufferViews":[
		{
			"buffer":0,
			"byteLength":6336,
			"byteOffset":0,
			"target":34962
		},
		{
			"buffer":0,
			"byteLength":6336,
			"byteOffset":6336,
			"target":34962
		},
		{
			"buffer":0,
			"byteLength":4224,
			"byteOffset":12672,
			"target":34962
		},
		{
			"buffer":0,
			"byteLength":1944,
			"byteOffset":16896,
			"target":34963
		}
	],
	"buffers":[
		{
			"byteLength":18840,
			"uri":"livingroom_tv.bin"
		}
	]
}
