{
	"asset":{
		"generator":"Khronos glTF Blender I/O v4.2.57",
		"version":"2.0"
	},
	"scene":0,
	"scenes":[
		{
			"name":"Scene",
			"nodes":[
				0
			]
		}
	],
	"nodes":[
		{
			"mesh":0,
			"name":"armorposed",
			"translation":[
				-1.796810269355774,
				0,
				7.518232822418213
			]
		}
	],
	"meshes":[
		{
			"name":"Roundcube.001",
			"primitives":[
				{
					"attributes":{
						"POSITION":0,
						"NORMAL":1,
						"TEXCOORD_0":2,
						"TANGENT":3
					},
					"indices":4
				}
			]
		}
	],
	"accessors":[
		{
			"bufferView":0,
			"componentType":5126,
			"count":2942,
			"max":[
				0.3686586320400238,
				2.8964240550994873,
				0.684177041053772
			],
			"min":[
				-0.7558331489562988,
				-0.0007727656047791243,
				-0.6999582052230835
			],
			"type":"VEC3"
		},
		{
			"bufferView":1,
			"componentType":5126,
			"count":2942,
			"type":"VEC3"
		},
		{
			"bufferView":2,
			"componentType":5126,
			"count":2942,
			"type":"VEC2"
		},
		{
			"bufferView":3,
			"componentType":5126,
			"count":2942,
			"type":"VEC4"
		},
		{
			"bufferView":4,
			"componentType":5123,
			"count":5112,
			"type":"SCALAR"
		}
	],
	"bufferViews":[
		{
			"buffer":0,
			"byteLength":35304,
			"byteOffset":0,
			"target":34962
		},
		{
			"buffer":0,
			"byteLength":35304,
			"byteOffset":35304,
			"target":34962
		},
		{
			"buffer":0,
			"byteLength":23536,
			"byteOffset":70608,
			"target":34962
		},
		{
			"buffer":0,
			"byteLength":47072,
			"byteOffset":94144,
			"target":34962
		},
		{
			"buffer":0,
			"byteLength":10224,
			"byteOffset":141216,
			"target":34963
		}
	],
	"buffers":[
		{
			"byteLength":151440,
			"uri":"livingroom_knight.bin"
		}
	]
}
