{
	"asset":{
		"generator":"Khronos glTF Blender I/O v4.2.57",
		"version":"2.0"
	},
	"scene":0,
	"scenes":[
		{
			"name":"Scene",
			"nodes":[
				0
			]
		}
	],
	"nodes":[
		{
			"mesh":0,
			"name":"Couch",
			"translation":[
				-12.019734382629395,
				-3.2879412174224854e-05,
				9.717106819152832
			]
		}
	],
	"meshes":[
		{
			"name":"Cube.002",
			"primitives":[
				{
					"attributes":{
						"POSITION":0,
						"NORMAL":1,
						"TEXCOORD_0":2
					},
					"indices":3
				}
			]
		}
	],
	"accessors":[
		{
			"bufferView":0,
			"componentType":5126,
			"count":245,
			"max":[
				0.5044041872024536,
				1.0629022121429443,
				1.5000909566879272
			],
			"min":[
				-0.5066455006599426,
				0.0035787601955235004,
				-1.5000909566879272
			],
			"type":"VEC3"
		},
		{
			"bufferView":1,
			"componentType":5126,
			"count":245,
			"type":"VEC3"
		},
		{
			"bufferView":2,
			"componentType":5126,
			"count":245,
			"type":"VEC2"
		},
		{
			"bufferView":3,
			"componentType":5123,
			"count":516,
			"type":"SCALAR"
		}
	],
	"bufferViews":[
		{
			"buffer":0,
			"byteLength":2940,
			"byteOffset":0,
			"target":34962
		},
		{
			"buffer":0,
			"byteLength":2940,
			"byteOffset":2940,
			"target":34962
		},
		{
			"buffer":0,
			"byteLength":1960,
			"byteOffset":5880,
			"target":34962
		},
		{
			"buffer":0,
			"byteLength":1032,
			"byteOffset":7840,
			"target":34963
		}
	],
	"buffers":[
		{
			"byteLength":8872,
			"uri":"livingroom_sofa.bin"
		}
	]
}
