{
	"asset":{
		"generator":"Khronos glTF Blender I/O v4.2.57",
		"version":"2.0"
	},
	"scene":0,
	"scenes":[
		{
			"name":"Scene",
			"nodes":[
				0
			]
		}
	],
	"nodes":[
		{
			"mesh":0,
			"name":"Couch",
			"translation":[
				-6.70811128616333,
				0.058311495929956436,
				5.673581600189209
			]
		}
	],
	"meshes":[
		{
			"name":"Cube.002",
			"primitives":[
				{
					"attributes":{
						"POSITION":0,
						"NORMAL":1,
						"TEXCOORD_0":2
					},
					"indices":3
				}
			]
		}
	],
	"accessors":[
		{
			"bufferView":0,
			"componentType":5126,
			"count":443,
			"max":[
				0.5044041275978088,
				1.002675175666809,
				1.5
			],
			"min":[
				-0.5041781067848206,
				-0.057704925537109375,
				-1.5
			],
			"type":"VEC3"
		},
		{
			"bufferView":1,
			"componentType":5126,
			"count":443,
			"type":"VEC3"
		},
		{
			"bufferView":2,
			"componentType":5126,
			"count":443,
			"type":"VEC2"
		},
		{
			"bufferView":3,
			"componentType":5123,
			"count":864,
			"type":"SCALAR"
		}
	],
	"bufferViews":[
		{
			"buffer":0,
			"byteLength":5316,
			"byteOffset":0,
			"target":34962
		},
		{
			"buffer":0,
			"byteLength":5316,
			"byteOffset":5316,
			"target":34962
		},
		{
			"buffer":0,
			"byteLength":3544,
			"byteOffset":10632,
			"target":34962
		},
		{
			"buffer":0,
			"byteLength":1728,
			"byteOffset":14176,
			"target":34963
		}
	],
	"buffers":[
		{
			"byteLength":15904,
			"uri":"livingroom_sofa.bin"
		}
	]
}
