{
	"asset":{
		"generator":"Khronos glTF Blender I/O v4.2.57",
		"version":"2.0"
	},
	"scene":0,
	"scenes":[
		{
			"name":"Scene",
			"nodes":[
				0
			]
		}
	],
	"nodes":[
		{
			"mesh":0,
			"name":"armorposed",
			"translation":[
				-1.796810269355774,
				0,
				7.518232822418213
			]
		}
	],
	"meshes":[
		{
			"name":"Roundcube.001",
			"primitives":[
				{
					"attributes":{
						"POSITION":0,
						"NORMAL":1,
						"TEXCOORD_0":2,
						"TANGENT":3
					},
					"indices":4
				}
			]
		}
	],
	"accessors":[
		{
			"bufferView":0,
			"componentType":5126,
			"count":2381,
			"max":[
				0.3686586320400238,
				2.893867015838623,
				0.6848990321159363
			],
			"min":[
				-0.757976233959198,
				-0.0007727656047791243,
				-0.7009580135345459
			],
			"type":"VEC3"
		},
		{
			"bufferView":1,
			"componentType":5126,
			"count":2381,
			"type":"VEC3"
		},
		{
			"bufferView":2,
			"componentType":5126,
			"count":2381,
			"type":"VEC2"
		},
		{
			"bufferView":3,
			"componentType":5126,
			"count":2381,
			"type":"VEC4"
		},
		{
			"bufferView":4,
			"componentType":5123,
			"count":3780,
			"type":"SCALAR"
		}
	],
	"bufferViews":[
		{
			"buffer":0,
			"byteLength":28572,
			"byteOffset":0,
			"target":34962
		},
		{
			"buffer":0,
			"byteLength":28572,
			"byteOffset":28572,
			"target":34962
		},
		{
			"buffer":0,
			"byteLength":19048,
			"byteOffset":57144,
			"target":34962
		},
		{
			"buffer":0,
			"byteLength":38096,
			"byteOffset":76192,
			"target":34962
		},
		{
			"buffer":0,
			"byteLength":7560,
			"byteOffset":114288,
			"target":34963
		}
	],
	"buffers":[
		{
			"byteLength":121848,
			"uri":"livingroom_knight.bin"
		}
	]
}
