{
	"asset":{
		"generator":"Khronos glTF Blender I/O v4.2.57",
		"version":"2.0"
	},
	"scene":0,
	"scenes":[
		{
			"name":"Scene",
			"nodes":[
				0
			]
		}
	],
	"nodes":[
		{
			"mesh":0,
			"name":"Knight",
			"translation":[
				-1.9497150182724,
				0,
				7.586164474487305
			]
		}
	],
	"meshes":[
		{
			"name":"Knight",
			"primitives":[
				{
					"attributes":{
						"POSITION":0,
						"NORMAL":1,
						"TEXCOORD_0":2,
						"TANGENT":3
					},
					"indices":4
				}
			]
		}
	],
	"accessors":[
		{
			"bufferView":0,
			"componentType":5126,
			"count":2130,
			"max":[
				0.4485107958316803,
				2.5575461387634277,
				1.24595046043396
			],
			"min":[
				-1.4809168577194214,
				0.0014144342858344316,
				-1.3694767951965332
			],
			"type":"VEC3"
		},
		{
			"bufferView":1,
			"componentType":5126,
			"count":2130,
			"type":"VEC3"
		},
		{
			"bufferView":2,
			"componentType":5126,
			"count":2130,
			"type":"VEC2"
		},
		{
			"bufferView":3,
			"componentType":5126,
			"count":2130,
			"type":"VEC4"
		},
		{
			"bufferView":4,
			"componentType":5123,
			"count":3018,
			"type":"SCALAR"
		}
	],
	"bufferViews":[
		{
			"buffer":0,
			"byteLength":25560,
			"byteOffset":0,
			"target":34962
		},
		{
			"buffer":0,
			"byteLength":25560,
			"byteOffset":25560,
			"target":34962
		},
		{
			"buffer":0,
			"byteLength":17040,
			"byteOffset":51120,
			"target":34962
		},
		{
			"buffer":0,
			"byteLength":34080,
			"byteOffset":68160,
			"target":34962
		},
		{
			"buffer":0,
			"byteLength":6036,
			"byteOffset":102240,
			"target":34963
		}
	],
	"buffers":[
		{
			"byteLength":108276,
			"uri":"livingroom_knight.bin"
		}
	]
}
