{
	"asset":{
		"generator":"Khronos glTF Blender I/O v4.2.57",
		"version":"2.0"
	},
	"scene":0,
	"scenes":[
		{
			"name":"Scene",
			"nodes":[
				0
			]
		}
	],
	"nodes":[
		{
			"mesh":0,
			"name":"table",
			"translation":[
				-9.073488235473633,
				0.0010266304016113281,
				3.530951976776123
			]
		}
	],
	"meshes":[
		{
			"name":"Cylinder.001",
			"primitives":[
				{
					"attributes":{
						"POSITION":0,
						"NORMAL":1,
						"TEXCOORD_0":2
					},
					"indices":3
				}
			]
		}
	],
	"accessors":[
		{
			"bufferView":0,
			"componentType":5126,
			"count":817,
			"max":[
				0.9510565996170044,
				1.4704190492630005,
				1.000000238418579
			],
			"min":[
				-0.9510565996170044,
				-0.00037858530413359404,
				-0.9999997615814209
			],
			"type":"VEC3"
		},
		{
			"bufferView":1,
			"componentType":5126,
			"count":817,
			"type":"VEC3"
		},
		{
			"bufferView":2,
			"componentType":5126,
			"count":817,
			"type":"VEC2"
		},
		{
			"bufferView":3,
			"componentType":5123,
			"count":1830,
			"type":"SCALAR"
		}
	],
	"bufferViews":[
		{
			"buffer":0,
			"byteLength":9804,
			"byteOffset":0,
			"target":34962
		},
		{
			"buffer":0,
			"byteLength":9804,
			"byteOffset":9804,
			"target":34962
		},
		{
			"buffer":0,
			"byteLength":6536,
			"byteOffset":19608,
			"target":34962
		},
		{
			"buffer":0,
			"byteLength":3660,
			"byteOffset":26144,
			"target":34963
		}
	],
	"buffers":[
		{
			"byteLength":29804,
			"uri":"livingroom_table.bin"
		}
	]
}
