{
	"asset":{
		"generator":"Khronos glTF Blender I/O v4.2.57",
		"version":"2.0"
	},
	"scene":0,
	"scenes":[
		{
			"name":"Scene",
			"nodes":[
				0
			]
		}
	],
	"nodes":[
		{
			"mesh":0,
			"name":"knight2",
			"translation":[
				-1.9497150182724,
				0,
				7.586164474487305
			]
		}
	],
	"meshes":[
		{
			"name":"Cube.001",
			"primitives":[
				{
					"attributes":{
						"POSITION":0,
						"NORMAL":1,
						"TEXCOORD_0":2,
						"TANGENT":3
					},
					"indices":4
				}
			]
		}
	],
	"accessors":[
		{
			"bufferView":0,
			"componentType":5126,
			"count":1668,
			"max":[
				0.27763625979423523,
				2.5575461387634277,
				1.0564278364181519
			],
			"min":[
				-0.4532763957977295,
				0.0014144342858344316,
				-1.0564278364181519
			],
			"type":"VEC3"
		},
		{
			"bufferView":1,
			"componentType":5126,
			"count":1668,
			"type":"VEC3"
		},
		{
			"bufferView":2,
			"componentType":5126,
			"count":1668,
			"type":"VEC2"
		},
		{
			"bufferView":3,
			"componentType":5126,
			"count":1668,
			"type":"VEC4"
		},
		{
			"bufferView":4,
			"componentType":5123,
			"count":2520,
			"type":"SCALAR"
		}
	],
	"bufferViews":[
		{
			"buffer":0,
			"byteLength":20016,
			"byteOffset":0,
			"target":34962
		},
		{
			"buffer":0,
			"byteLength":20016,
			"byteOffset":20016,
			"target":34962
		},
		{
			"buffer":0,
			"byteLength":13344,
			"byteOffset":40032,
			"target":34962
		},
		{
			"buffer":0,
			"byteLength":26688,
			"byteOffset":53376,
			"target":34962
		},
		{
			"buffer":0,
			"byteLength":5040,
			"byteOffset":80064,
			"target":34963
		}
	],
	"buffers":[
		{
			"byteLength":85104,
			"uri":"livingroom_knight.bin"
		}
	]
}
