{
	"asset":{
		"generator":"Khronos glTF Blender I/O v4.2.57",
		"version":"2.0"
	},
	"scene":0,
	"scenes":[
		{
			"name":"Scene",
			"nodes":[
				0
			]
		}
	],
	"nodes":[
		{
			"mesh":0,
			"name":"Cat-body triangulated",
			"translation":[
				2.046804904937744,
				0,
				0.08756384998559952
			]
		}
	],
	"meshes":[
		{
			"name":"Cube.001",
			"primitives":[
				{
					"attributes":{
						"POSITION":0,
						"NORMAL":1,
						"TEXCOORD_0":2,
						"TANGENT":3
					},
					"indices":4
				}
			]
		}
	],
	"accessors":[
		{
			"bufferView":0,
			"componentType":5126,
			"count":700,
			"max":[
				0.6818686723709106,
				0.6355981230735779,
				0.12845292687416077
			],
			"min":[
				-0.6095876097679138,
				0.001213284907862544,
				-0.12845292687416077
			],
			"type":"VEC3"
		},
		{
			"bufferView":1,
			"componentType":5126,
			"count":700,
			"type":"VEC3"
		},
		{
			"bufferView":2,
			"componentType":5126,
			"count":700,
			"type":"VEC2"
		},
		{
			"bufferView":3,
			"componentType":5126,
			"count":700,
			"type":"VEC4"
		},
		{
			"bufferView":4,
			"componentType":5123,
			"count":1470,
			"type":"SCALAR"
		}
	],
	"bufferViews":[
		{
			"buffer":0,
			"byteLength":8400,
			"byteOffset":0,
			"target":34962
		},
		{
			"buffer":0,
			"byteLength":8400,
			"byteOffset":8400,
			"target":34962
		},
		{
			"buffer":0,
			"byteLength":5600,
			"byteOffset":16800,
			"target":34962
		},
		{
			"buffer":0,
			"byteLength":11200,
			"byteOffset":22400,
			"target":34962
		},
		{
			"buffer":0,
			"byteLength":2940,
			"byteOffset":33600,
			"target":34963
		}
	],
	"buffers":[
		{
			"byteLength":36540,
			"uri":"cat.bin"
		}
	]
}
