{
	"asset":{
		"generator":"Khronos glTF Blender I/O v4.2.57",
		"version":"2.0"
	},
	"scene":0,
	"scenes":[
		{
			"name":"Scene",
			"nodes":[
				0
			]
		}
	],
	"nodes":[
		{
			"mesh":0,
			"name":"Cat-body",
			"translation":[
				2.046804904937744,
				0,
				0.08756384998559952
			]
		}
	],
	"meshes":[
		{
			"name":"Cube.031",
			"primitives":[
				{
					"attributes":{
						"POSITION":0,
						"NORMAL":1,
						"TEXCOORD_0":2
					},
					"indices":3
				}
			]
		}
	],
	"accessors":[
		{
			"bufferView":0,
			"componentType":5126,
			"count":771,
			"max":[
				0.6617187261581421,
				0.636338472366333,
				0.12845292687416077
			],
			"min":[
				-0.6095876097679138,
				0.001213284907862544,
				-0.12845292687416077
			],
			"type":"VEC3"
		},
		{
			"bufferView":1,
			"componentType":5126,
			"count":771,
			"type":"VEC3"
		},
		{
			"bufferView":2,
			"componentType":5126,
			"count":771,
			"type":"VEC2"
		},
		{
			"bufferView":3,
			"componentType":5123,
			"count":1482,
			"type":"SCALAR"
		}
	],
	"bufferViews":[
		{
			"buffer":0,
			"byteLength":9252,
			"byteOffset":0,
			"target":34962
		},
		{
			"buffer":0,
			"byteLength":9252,
			"byteOffset":9252,
			"target":34962
		},
		{
			"buffer":0,
			"byteLength":6168,
			"byteOffset":18504,
			"target":34962
		},
		{
			"buffer":0,
			"byteLength":2964,
			"byteOffset":24672,
			"target":34963
		}
	],
	"buffers":[
		{
			"byteLength":27636,
			"uri":"cat.bin"
		}
	]
}
