{
	"asset":{
		"generator":"Khronos glTF Blender I/O v4.2.57",
		"version":"2.0"
	},
	"scene":0,
	"scenes":[
		{
			"name":"Scene",
			"nodes":[
				0
			]
		}
	],
	"nodes":[
		{
			"mesh":0,
			"name":"Cat-body"
		}
	],
	"meshes":[
		{
			"name":"Cube.031",
			"primitives":[
				{
					"attributes":{
						"POSITION":0,
						"NORMAL":1,
						"TEXCOORD_0":2
					},
					"indices":3
				}
			]
		}
	],
	"accessors":[
		{
			"bufferView":0,
			"componentType":5126,
			"count":982,
			"max":[
				0.13697658479213715,
				0.6785635948181152,
				0.6500375866889954
			],
			"min":[
				-0.13697658479213715,
				0.0012937940191477537,
				-1.0259487628936768
			],
			"type":"VEC3"
		},
		{
			"bufferView":1,
			"componentType":5126,
			"count":982,
			"type":"VEC3"
		},
		{
			"bufferView":2,
			"componentType":5126,
			"count":982,
			"type":"VEC2"
		},
		{
			"bufferView":3,
			"componentType":5123,
			"count":1482,
			"type":"SCALAR"
		}
	],
	"bufferViews":[
		{
			"buffer":0,
			"byteLength":11784,
			"byteOffset":0,
			"target":34962
		},
		{
			"buffer":0,
			"byteLength":11784,
			"byteOffset":11784,
			"target":34962
		},
		{
			"buffer":0,
			"byteLength":7856,
			"byteOffset":23568,
			"target":34962
		},
		{
			"buffer":0,
			"byteLength":2964,
			"byteOffset":31424,
			"target":34963
		}
	],
	"buffers":[
		{
			"byteLength":34388,
			"uri":"cat.bin"
		}
	]
}
