{
	"asset":{
		"generator":"Khronos glTF Blender I/O v4.2.57",
		"version":"2.0"
	},
	"scene":0,
	"scenes":[
		{
			"name":"Scene",
			"nodes":[
				0
			]
		}
	],
	"nodes":[
		{
			"mesh":0,
			"name":"floor+walls"
		}
	],
	"meshes":[
		{
			"name":"Plane.008",
			"primitives":[
				{
					"attributes":{
						"POSITION":0,
						"NORMAL":1,
						"TEXCOORD_0":2
					},
					"indices":3
				}
			]
		}
	],
	"accessors":[
		{
			"bufferView":0,
			"componentType":5126,
			"count":788,
			"max":[
				7.570000171661377,
				3.8722829818725586,
				7.570000171661377
			],
			"min":[
				-7.570000171661377,
				0,
				-7.570000171661377
			],
			"type":"VEC3"
		},
		{
			"bufferView":1,
			"componentType":5126,
			"count":788,
			"type":"VEC3"
		},
		{
			"bufferView":2,
			"componentType":5126,
			"count":788,
			"type":"VEC2"
		},
		{
			"bufferView":3,
			"componentType":5123,
			"count":1848,
			"type":"SCALAR"
		}
	],
	"bufferViews":[
		{
			"buffer":0,
			"byteLength":9456,
			"byteOffset":0,
			"target":34962
		},
		{
			"buffer":0,
			"byteLength":9456,
			"byteOffset":9456,
			"target":34962
		},
		{
			"buffer":0,
			"byteLength":6304,
			"byteOffset":18912,
			"target":34962
		},
		{
			"buffer":0,
			"byteLength":3696,
			"byteOffset":25216,
			"target":34963
		}
	],
	"buffers":[
		{
			"byteLength":28912,
			"uri":"walls.bin"
		}
	]
}
