{
	"asset":{
		"generator":"Khronos glTF Blender I/O v4.2.57",
		"version":"2.0"
	},
	"scene":0,
	"scenes":[
		{
			"name":"Scene",
			"nodes":[
				0
			]
		}
	],
	"nodes":[
		{
			"mesh":0,
			"name":"walls"
		}
	],
	"meshes":[
		{
			"name":"Plane.008",
			"primitives":[
				{
					"attributes":{
						"POSITION":0,
						"NORMAL":1,
						"TEXCOORD_0":2
					},
					"indices":3
				}
			]
		}
	],
	"accessors":[
		{
			"bufferView":0,
			"componentType":5126,
			"count":748,
			"max":[
				12.614141464233398,
				3.5039894580841064,
				12.614141464233398
			],
			"min":[
				-12.614141464233398,
				0,
				-12.614141464233398
			],
			"type":"VEC3"
		},
		{
			"bufferView":1,
			"componentType":5126,
			"count":748,
			"type":"VEC3"
		},
		{
			"bufferView":2,
			"componentType":5126,
			"count":748,
			"type":"VEC2"
		},
		{
			"bufferView":3,
			"componentType":5123,
			"count":1860,
			"type":"SCALAR"
		}
	],
	"bufferViews":[
		{
			"buffer":0,
			"byteLength":8976,
			"byteOffset":0,
			"target":34962
		},
		{
			"buffer":0,
			"byteLength":8976,
			"byteOffset":8976,
			"target":34962
		},
		{
			"buffer":0,
			"byteLength":5984,
			"byteOffset":17952,
			"target":34962
		},
		{
			"buffer":0,
			"byteLength":3720,
			"byteOffset":23936,
			"target":34963
		}
	],
	"buffers":[
		{
			"byteLength":27656,
			"uri":"walls.bin"
		}
	]
}
