{
	"asset":{
		"generator":"Khronos glTF Blender I/O v4.2.57",
		"version":"2.0"
	},
	"scene":0,
	"scenes":[
		{
			"name":"Scene",
			"nodes":[
				0
			]
		}
	],
	"nodes":[
		{
			"mesh":0,
			"name":"walls"
		}
	],
	"meshes":[
		{
			"name":"Plane.008",
			"primitives":[
				{
					"attributes":{
						"POSITION":0,
						"NORMAL":1,
						"TEXCOORD_0":2,
						"TANGENT":3
					},
					"indices":4
				}
			]
		}
	],
	"accessors":[
		{
			"bufferView":0,
			"componentType":5126,
			"count":463,
			"max":[
				12.614141464233398,
				3.5039896965026855,
				12.614141464233398
			],
			"min":[
				-12.614141464233398,
				-6.053984356404125e-18,
				-12.614141464233398
			],
			"type":"VEC3"
		},
		{
			"bufferView":1,
			"componentType":5126,
			"count":463,
			"type":"VEC3"
		},
		{
			"bufferView":2,
			"componentType":5126,
			"count":463,
			"type":"VEC2"
		},
		{
			"bufferView":3,
			"componentType":5126,
			"count":463,
			"type":"VEC4"
		},
		{
			"bufferView":4,
			"componentType":5123,
			"count":1035,
			"type":"SCALAR"
		}
	],
	"bufferViews":[
		{
			"buffer":0,
			"byteLength":5556,
			"byteOffset":0,
			"target":34962
		},
		{
			"buffer":0,
			"byteLength":5556,
			"byteOffset":5556,
			"target":34962
		},
		{
			"buffer":0,
			"byteLength":3704,
			"byteOffset":11112,
			"target":34962
		},
		{
			"buffer":0,
			"byteLength":7408,
			"byteOffset":14816,
			"target":34962
		},
		{
			"buffer":0,
			"byteLength":2070,
			"byteOffset":22224,
			"target":34963
		}
	],
	"buffers":[
		{
			"byteLength":24296,
			"uri":"walls.bin"
		}
	]
}
