# Blender 4.2.0
# www.blender.org
mtllib crystals.mtl
o Crystals
v -1.385549 0.351160 0.019115
v -1.454293 0.533207 0.032769
v -1.416368 0.351160 -0.013215
v -1.505962 0.518955 -0.022611
v -1.403779 0.351160 -0.056071
v -1.484219 0.518955 -0.096626
v -1.360370 0.351160 -0.066596
v -1.410807 0.533207 -0.115261
v -1.329550 0.351160 -0.034266
v -1.359138 0.547460 -0.059882
v -1.342140 0.351160 0.008590
v -1.380881 0.547460 0.014134
v -1.454615 0.606497 -0.047728
v -1.320560 0.351160 0.037089
v -1.341528 0.351160 0.014034
v -1.332046 0.351160 -0.015653
v -1.301595 0.351160 -0.022284
v -1.280627 0.351160 0.000772
v -1.290110 0.351160 0.030458
v -1.288070 0.447948 0.067976
v -1.322583 0.459344 0.028964
v -1.306359 0.459344 -0.021827
v -1.255622 0.447948 -0.033607
v -1.221108 0.436551 0.005405
v -1.237332 0.436551 0.056196
v -1.255244 0.496954 0.023126
v -1.319863 0.351160 -0.032322
v -1.347421 0.351160 -0.057267
v -1.339596 0.351160 -0.093606
v -1.304214 0.351160 -0.104998
v -1.276657 0.351160 -0.080053
v -1.284481 0.351160 -0.043715
v -1.305117 0.513041 -0.015821
v -1.347837 0.519409 -0.055159
v -1.335967 0.514808 -0.112175
v -1.281377 0.503839 -0.129855
v -1.238657 0.497471 -0.090518
v -1.250527 0.502072 -0.033501
v -1.277232 0.582309 -0.074929
vn -0.6669 -0.3101 0.6776
vn -0.8484 -0.4670 -0.2492
vn -0.1945 -0.3101 -0.9306
vn 0.7268 0.0189 -0.6866
vn -0.3041 0.5409 -0.7842
vn 0.9441 0.1785 0.2773
vn 0.2400 0.0189 0.9706
vn -0.0000 -1.0000 -0.0000
vn 0.0273 0.7392 0.6729
vn 0.3869 0.7392 -0.5512
vn -0.8643 0.4341 -0.2539
vn 0.5338 0.8310 0.1568
vn -0.6799 0.5409 0.4952
vn 0.3026 0.5252 0.7954
vn -0.2219 -0.0057 -0.9751
vn -0.7417 0.0364 0.6697
vn 0.1580 -0.3598 0.9196
vn 0.6464 -0.3982 -0.6509
vn -0.9325 0.2044 -0.2979
vn 0.7875 -0.5626 0.2516
vn 0.7042 0.5349 -0.4668
vn -0.4919 0.8563 -0.1571
vn 0.8690 0.4097 0.2776
vn 0.0182 0.7566 -0.6537
vn -0.3713 0.7498 0.5476
vn 0.9095 0.3844 0.1583
vn 0.2910 -0.1263 0.9483
vn 0.6479 -0.2180 -0.7299
vn -0.9785 -0.0008 -0.2064
vn 0.9499 -0.2298 0.2117
vn -0.3172 -0.1029 -0.9428
vn -0.6755 -0.0122 0.7373
vn -0.1463 0.5724 -0.8068
vn -0.4401 0.6788 0.5878
vn 0.3560 0.5195 0.7768
vn 0.6495 0.4127 -0.6386
vn -0.6824 0.7035 -0.1988
vt 0.418609 0.384202
vt 0.434572 0.392150
vt 0.431664 0.401650
vt 0.417544 0.389920
vt 0.424398 0.408585
vt 0.413337 0.393936
vt 0.414774 0.411048
vt 0.407576 0.394734
vt 0.404839 0.411048
vt 0.401803 0.394031
vt 0.431985 0.411048
vt 0.441421 0.416784
vt 0.433440 0.422290
vt 0.418758 0.372616
vt 0.436040 0.372232
vt 0.435033 0.382226
vt 0.418175 0.378403
vt 0.446113 0.390642
vt 0.446113 0.396457
vt 0.441077 0.399365
vt 0.436040 0.396457
vt 0.436040 0.390642
vt 0.441077 0.387734
vt 0.431985 0.433532
vt 0.422157 0.428028
vt 0.422157 0.416552
vt 0.441421 0.427796
vt 0.448449 0.417135
vt 0.444935 0.419164
vt 0.441421 0.417135
vt 0.441421 0.413077
vt 0.444935 0.411048
vt 0.448449 0.413077
vt 0.436055 0.383784
vt 0.441415 0.380049
vt 0.442530 0.387734
vt 0.422157 0.425994
vt 0.422005 0.435724
vt 0.415299 0.437120
vt 0.418339 0.427368
vt 0.410857 0.420539
vt 0.401803 0.424832
vt 0.402051 0.417987
vt 0.411572 0.416544
vt 0.411300 0.424572
vt 0.403412 0.431490
vt 0.408511 0.436201
vt 0.414281 0.427326
vt 0.401803 0.411048
vt 0.411427 0.412489
vt 0.442515 0.372232
vt 0.436040 0.376210
vt 0.449295 0.383948
vt 0.449295 0.376018
vt 0.444423 0.406625
vt 0.440231 0.409045
vt 0.436040 0.406625
vt 0.436040 0.401785
vt 0.440231 0.399365
vt 0.444423 0.401785
vt 0.398735 0.428147
vt 0.391929 0.423969
vt 0.398824 0.419314
vt 0.386399 0.402960
vt 0.398769 0.408398
vt 0.394652 0.414701
vt 0.383283 0.406663
vt 0.388224 0.393638
vt 0.401803 0.393668
vt 0.401277 0.401231
vt 0.388225 0.398477
vt 0.385099 0.384487
vt 0.398171 0.379041
vt 0.400588 0.386239
vt 0.386872 0.388990
vt 0.383283 0.380000
vt 0.394838 0.372232
vt 0.383283 0.428301
vt 0.391115 0.432668
vt 0.391223 0.414701
vt 0.383283 0.419150
s 0
usemtl Emissive
f 1/1/1 2/2/1 4/3/1 3/4/1
f 3/4/2 4/3/2 6/5/2 5/6/2
f 5/6/3 6/5/3 8/7/3 7/8/3
f 7/8/4 8/7/4 10/9/4 9/10/4
f 8/11/5 6/12/5 13/13/5
f 9/14/6 10/15/6 12/16/6 11/17/6
f 11/17/7 12/16/7 2/2/7 1/1/7
f 1/18/8 3/19/8 5/20/8 7/21/8 9/22/8 11/23/8
f 2/24/9 12/25/9 13/13/9
f 10/26/10 8/11/10 13/13/10
f 6/12/11 4/27/11 13/13/11
f 12/25/12 10/26/12 13/13/12
f 4/27/13 2/24/13 13/13/13
f 14/28/8 15/29/8 16/30/8 17/31/8 18/32/8 19/33/8
f 25/34/14 26/35/14 20/36/14
f 16/37/15 22/38/15 23/39/15 17/40/15
f 14/41/16 20/42/16 21/43/16 15/44/16
f 19/45/17 25/46/17 20/42/17 14/41/17
f 17/40/18 23/39/18 24/47/18 18/48/18
f 15/44/19 21/43/19 22/49/19 16/50/19
f 18/48/20 24/47/20 25/46/20 19/45/20
f 23/51/21 26/35/21 24/52/21
f 21/53/22 26/35/22 22/54/22
f 24/52/23 26/35/23 25/34/23
f 22/54/24 26/35/24 23/51/24
f 20/36/25 26/35/25 21/53/25
f 27/55/8 28/56/8 29/57/8 30/58/8 31/59/8 32/60/8
f 37/61/26 39/62/26 38/63/26
f 32/64/27 38/65/27 33/66/27 27/67/27
f 30/68/28 36/69/28 37/70/28 31/71/28
f 28/72/29 34/73/29 35/74/29 29/75/29
f 31/71/30 37/70/30 38/65/30 32/64/30
f 29/75/31 35/74/31 36/69/31 30/68/31
f 27/76/32 33/77/32 34/73/32 28/72/32
f 35/78/33 39/62/33 36/79/33
f 33/80/34 39/62/34 34/81/34
f 38/63/35 39/62/35 33/80/35
f 36/79/36 39/62/36 37/61/36
f 34/81/37 39/62/37 35/78/37
