{
	"asset":{
		"generator":"Khronos glTF Blender I/O v4.2.57",
		"version":"2.0"
	},
	"scene":0,
	"scenes":[
		{
			"name":"Scene",
			"nodes":[
				0
			]
		}
	],
	"nodes":[
		{
			"mesh":0,
			"name":"bed",
			"translation":[
				11.42087459564209,
				-1.9073369912803173e-05,
				-9.770669937133789
			]
		}
	],
	"meshes":[
		{
			"name":"Cube.018",
			"primitives":[
				{
					"attributes":{
						"POSITION":0,
						"NORMAL":1,
						"TEXCOORD_0":2
					},
					"indices":3
				}
			]
		}
	],
	"accessors":[
		{
			"bufferView":0,
			"componentType":5126,
			"count":497,
			"max":[
				1.0000001192092896,
				1.2406079769134521,
				2.236968994140625
			],
			"min":[
				-1.0000001192092896,
				0.0013058185577392578,
				-2.2757248878479004
			],
			"type":"VEC3"
		},
		{
			"bufferView":1,
			"componentType":5126,
			"count":497,
			"type":"VEC3"
		},
		{
			"bufferView":2,
			"componentType":5126,
			"count":497,
			"type":"VEC2"
		},
		{
			"bufferView":3,
			"componentType":5123,
			"count":1296,
			"type":"SCALAR"
		}
	],
	"bufferViews":[
		{
			"buffer":0,
			"byteLength":5964,
			"byteOffset":0,
			"target":34962
		},
		{
			"buffer":0,
			"byteLength":5964,
			"byteOffset":5964,
			"target":34962
		},
		{
			"buffer":0,
			"byteLength":3976,
			"byteOffset":11928,
			"target":34962
		},
		{
			"buffer":0,
			"byteLength":2592,
			"byteOffset":15904,
			"target":34963
		}
	],
	"buffers":[
		{
			"byteLength":18496,
			"uri":"bedroom_bed.bin"
		}
	]
}
