{
	"asset":{
		"generator":"Khronos glTF Blender I/O v4.2.57",
		"version":"2.0"
	},
	"scene":0,
	"scenes":[
		{
			"name":"Scene",
			"nodes":[
				0
			]
		}
	],
	"nodes":[
		{
			"mesh":0,
			"name":"wardrobe",
			"translation":[
				5.629619598388672,
				-1.9073369912803173e-05,
				-11.996387481689453
			]
		}
	],
	"meshes":[
		{
			"name":"Cube.019",
			"primitives":[
				{
					"attributes":{
						"POSITION":0,
						"NORMAL":1,
						"TEXCOORD_0":2
					},
					"indices":3
				}
			]
		}
	],
	"accessors":[
		{
			"bufferView":0,
			"componentType":5126,
			"count":1273,
			"max":[
				2.7191970348358154,
				3.1664981842041016,
				0.5206050276756287
			],
			"min":[
				-2.842867612838745,
				0,
				-0.4478874206542969
			],
			"type":"VEC3"
		},
		{
			"bufferView":1,
			"componentType":5126,
			"count":1273,
			"type":"VEC3"
		},
		{
			"bufferView":2,
			"componentType":5126,
			"count":1273,
			"type":"VEC2"
		},
		{
			"bufferView":3,
			"componentType":5123,
			"count":2370,
			"type":"SCALAR"
		}
	],
	"bufferViews":[
		{
			"buffer":0,
			"byteLength":15276,
			"byteOffset":0,
			"target":34962
		},
		{
			"buffer":0,
			"byteLength":15276,
			"byteOffset":15276,
			"target":34962
		},
		{
			"buffer":0,
			"byteLength":10184,
			"byteOffset":30552,
			"target":34962
		},
		{
			"buffer":0,
			"byteLength":4740,
			"byteOffset":40736,
			"target":34963
		}
	],
	"buffers":[
		{
			"byteLength":45476,
			"uri":"bedroom_closet.bin"
		}
	]
}
