{
	"asset":{
		"generator":"Khronos glTF Blender I/O v4.2.57",
		"version":"2.0"
	},
	"scene":0,
	"scenes":[
		{
			"name":"Scene",
			"nodes":[
				0
			]
		}
	],
	"nodes":[
		{
			"mesh":0,
			"name":"night table",
			"translation":[
				6.71643590927124,
				0.0008287429809570312,
				-2.289060115814209
			]
		}
	],
	"meshes":[
		{
			"name":"Cube.027",
			"primitives":[
				{
					"attributes":{
						"POSITION":0,
						"NORMAL":1,
						"TEXCOORD_0":2
					},
					"indices":3
				}
			]
		}
	],
	"accessors":[
		{
			"bufferView":0,
			"componentType":5126,
			"count":876,
			"max":[
				0.5494540929794312,
				1.762751579284668,
				0.5494542121887207
			],
			"min":[
				-0.33172085881233215,
				0.0009012222290039062,
				-0.5494544506072998
			],
			"type":"VEC3"
		},
		{
			"bufferView":1,
			"componentType":5126,
			"count":876,
			"type":"VEC3"
		},
		{
			"bufferView":2,
			"componentType":5126,
			"count":876,
			"type":"VEC2"
		},
		{
			"bufferView":3,
			"componentType":5123,
			"count":1872,
			"type":"SCALAR"
		}
	],
	"bufferViews":[
		{
			"buffer":0,
			"byteLength":10512,
			"byteOffset":0,
			"target":34962
		},
		{
			"buffer":0,
			"byteLength":10512,
			"byteOffset":10512,
			"target":34962
		},
		{
			"buffer":0,
			"byteLength":7008,
			"byteOffset":21024,
			"target":34962
		},
		{
			"buffer":0,
			"byteLength":3744,
			"byteOffset":28032,
			"target":34963
		}
	],
	"buffers":[
		{
			"byteLength":31776,
			"uri":"bedroom_night_table.bin"
		}
	]
}
