{
	"asset":{
		"generator":"Khronos glTF Blender I/O v4.2.57",
		"version":"2.0"
	},
	"scene":0,
	"scenes":[
		{
			"name":"Scene",
			"nodes":[
				0
			]
		}
	],
	"nodes":[
		{
			"mesh":0,
			"name":"Cat-body-bones",
			"rotation":[
				0.6518363356590271,
				0.6518363952636719,
				0.2740609049797058,
				0.2740609347820282
			],
			"translation":[
				-7.8408708572387695,
				2.6226043701171875e-06,
				-12.159501075744629
			]
		}
	],
	"meshes":[
		{
			"name":"Cube.007",
			"primitives":[
				{
					"attributes":{
						"POSITION":0,
						"NORMAL":1,
						"TEXCOORD_0":2,
						"TANGENT":3
					},
					"indices":4
				}
			]
		}
	],
	"accessors":[
		{
			"bufferView":0,
			"componentType":5126,
			"count":452,
			"max":[
				0.2515909671783447,
				0.5698229074478149,
				0.5639254450798035
			],
			"min":[
				-0.00614398717880249,
				-0.07308172434568405,
				-0.43429794907569885
			],
			"type":"VEC3"
		},
		{
			"bufferView":1,
			"componentType":5126,
			"count":452,
			"type":"VEC3"
		},
		{
			"bufferView":2,
			"componentType":5126,
			"count":452,
			"type":"VEC2"
		},
		{
			"bufferView":3,
			"componentType":5126,
			"count":452,
			"type":"VEC4"
		},
		{
			"bufferView":4,
			"componentType":5123,
			"count":810,
			"type":"SCALAR"
		}
	],
	"bufferViews":[
		{
			"buffer":0,
			"byteLength":5424,
			"byteOffset":0,
			"target":34962
		},
		{
			"buffer":0,
			"byteLength":5424,
			"byteOffset":5424,
			"target":34962
		},
		{
			"buffer":0,
			"byteLength":3616,
			"byteOffset":10848,
			"target":34962
		},
		{
			"buffer":0,
			"byteLength":7232,
			"byteOffset":14464,
			"target":34962
		},
		{
			"buffer":0,
			"byteLength":1620,
			"byteOffset":21696,
			"target":34963
		}
	],
	"buffers":[
		{
			"byteLength":23316,
			"uri":"lair_catFainted.bin"
		}
	]
}
