{
	"asset":{
		"generator":"Khronos glTF Blender I/O v4.2.57",
		"version":"2.0"
	},
	"scene":0,
	"scenes":[
		{
			"name":"Scene",
			"nodes":[
				0
			]
		}
	],
	"nodes":[
		{
			"mesh":0,
			"name":"witch chair",
			"translation":[
				-5.493345737457275,
				0,
				-5.2950944900512695
			]
		}
	],
	"meshes":[
		{
			"name":"Cube.005",
			"primitives":[
				{
					"attributes":{
						"POSITION":0,
						"NORMAL":1,
						"TEXCOORD_0":2
					},
					"indices":3
				}
			]
		}
	],
	"accessors":[
		{
			"bufferView":0,
			"componentType":5126,
			"count":464,
			"max":[
				0.4293210804462433,
				1.839789628982544,
				0.42134544253349304
			],
			"min":[
				-0.42932090163230896,
				0.0020530670881271362,
				-0.42134544253349304
			],
			"type":"VEC3"
		},
		{
			"bufferView":1,
			"componentType":5126,
			"count":464,
			"type":"VEC3"
		},
		{
			"bufferView":2,
			"componentType":5126,
			"count":464,
			"type":"VEC2"
		},
		{
			"bufferView":3,
			"componentType":5123,
			"count":780,
			"type":"SCALAR"
		}
	],
	"bufferViews":[
		{
			"buffer":0,
			"byteLength":5568,
			"byteOffset":0,
			"target":34962
		},
		{
			"buffer":0,
			"byteLength":5568,
			"byteOffset":5568,
			"target":34962
		},
		{
			"buffer":0,
			"byteLength":3712,
			"byteOffset":11136,
			"target":34962
		},
		{
			"buffer":0,
			"byteLength":1560,
			"byteOffset":14848,
			"target":34963
		}
	],
	"buffers":[
		{
			"byteLength":16408,
			"uri":"lair_chair.bin"
		}
	]
}
