{
	"asset":{
		"generator":"Khronos glTF Blender I/O v4.2.57",
		"version":"2.0"
	},
	"scene":0,
	"scenes":[
		{
			"name":"Scene",
			"nodes":[
				0
			]
		}
	],
	"nodes":[
		{
			"mesh":0,
			"name":"trunk1",
			"translation":[
				-7.0120697021484375,
				0.00045765936374664307,
				-8.812376976013184
			]
		}
	],
	"meshes":[
		{
			"name":"Cylinder.003",
			"primitives":[
				{
					"attributes":{
						"POSITION":0,
						"NORMAL":1,
						"TEXCOORD_0":2
					},
					"indices":3
				}
			]
		}
	],
	"accessors":[
		{
			"bufferView":0,
			"componentType":5126,
			"count":2155,
			"max":[
				0.5879356861114502,
				0.7545174360275269,
				0.5638306140899658
			],
			"min":[
				-0.6046165823936462,
				-0.0007295683026313782,
				-0.5659950971603394
			],
			"type":"VEC3"
		},
		{
			"bufferView":1,
			"componentType":5126,
			"count":2155,
			"type":"VEC3"
		},
		{
			"bufferView":2,
			"componentType":5126,
			"count":2155,
			"type":"VEC2"
		},
		{
			"bufferView":3,
			"componentType":5123,
			"count":4236,
			"type":"SCALAR"
		}
	],
	"bufferViews":[
		{
			"buffer":0,
			"byteLength":25860,
			"byteOffset":0,
			"target":34962
		},
		{
			"buffer":0,
			"byteLength":25860,
			"byteOffset":25860,
			"target":34962
		},
		{
			"buffer":0,
			"byteLength":17240,
			"byteOffset":51720,
			"target":34962
		},
		{
			"buffer":0,
			"byteLength":8472,
			"byteOffset":68960,
			"target":34963
		}
	],
	"buffers":[
		{
			"byteLength":77432,
			"uri":"lair_cauldron.bin"
		}
	]
}
