{
	"asset":{
		"generator":"Khronos glTF Blender I/O v4.2.57",
		"version":"2.0"
	},
	"scene":0,
	"scenes":[
		{
			"name":"Scene",
			"nodes":[
				0
			]
		}
	],
	"nodes":[
		{
			"mesh":0,
			"name":"shelf",
			"translation":[
				-12.227802276611328,
				2.6319305896759033,
				-6.515364170074463
			]
		}
	],
	"meshes":[
		{
			"name":"Cube.006",
			"primitives":[
				{
					"attributes":{
						"POSITION":0,
						"NORMAL":1,
						"TEXCOORD_0":2
					},
					"indices":3
				}
			]
		}
	],
	"accessors":[
		{
			"bufferView":0,
			"componentType":5126,
			"count":728,
			"max":[
				0.5342971086502075,
				0.703594446182251,
				1
			],
			"min":[
				-0.2972354292869568,
				-0.04185515642166138,
				-1
			],
			"type":"VEC3"
		},
		{
			"bufferView":1,
			"componentType":5126,
			"count":728,
			"type":"VEC3"
		},
		{
			"bufferView":2,
			"componentType":5126,
			"count":728,
			"type":"VEC2"
		},
		{
			"bufferView":3,
			"componentType":5123,
			"count":1434,
			"type":"SCALAR"
		}
	],
	"bufferViews":[
		{
			"buffer":0,
			"byteLength":8736,
			"byteOffset":0,
			"target":34962
		},
		{
			"buffer":0,
			"byteLength":8736,
			"byteOffset":8736,
			"target":34962
		},
		{
			"buffer":0,
			"byteLength":5824,
			"byteOffset":17472,
			"target":34962
		},
		{
			"buffer":0,
			"byteLength":2868,
			"byteOffset":23296,
			"target":34963
		}
	],
	"buffers":[
		{
			"byteLength":26164,
			"uri":"lair_shelf1.bin"
		}
	]
}
