{
	"asset":{
		"generator":"Khronos glTF Blender I/O v4.2.57",
		"version":"2.0"
	},
	"scene":0,
	"scenes":[
		{
			"name":"Scene",
			"nodes":[
				0
			]
		}
	],
	"nodes":[
		{
			"mesh":0,
			"name":"Cat-body-bones",
			"translation":[
				-7.958863258361816,
				-0.0003385692834854126,
				-11.648761749267578
			]
		}
	],
	"meshes":[
		{
			"name":"Cube.007",
			"primitives":[
				{
					"attributes":{
						"POSITION":0,
						"NORMAL":1,
						"TEXCOORD_0":2,
						"TANGENT":3
					},
					"indices":4
				}
			]
		}
	],
	"accessors":[
		{
			"bufferView":0,
			"componentType":5126,
			"count":753,
			"max":[
				0.4070308804512024,
				0.25461292266845703,
				0.4566316604614258
			],
			"min":[
				-0.6033576726913452,
				2.002716064453125e-05,
				-0.3665724992752075
			],
			"type":"VEC3"
		},
		{
			"bufferView":1,
			"componentType":5126,
			"count":753,
			"type":"VEC3"
		},
		{
			"bufferView":2,
			"componentType":5126,
			"count":753,
			"type":"VEC2"
		},
		{
			"bufferView":3,
			"componentType":5126,
			"count":753,
			"type":"VEC4"
		},
		{
			"bufferView":4,
			"componentType":5123,
			"count":1482,
			"type":"SCALAR"
		}
	],
	"bufferViews":[
		{
			"buffer":0,
			"byteLength":9036,
			"byteOffset":0,
			"target":34962
		},
		{
			"buffer":0,
			"byteLength":9036,
			"byteOffset":9036,
			"target":34962
		},
		{
			"buffer":0,
			"byteLength":6024,
			"byteOffset":18072,
			"target":34962
		},
		{
			"buffer":0,
			"byteLength":12048,
			"byteOffset":24096,
			"target":34962
		},
		{
			"buffer":0,
			"byteLength":2964,
			"byteOffset":36144,
			"target":34963
		}
	],
	"buffers":[
		{
			"byteLength":39108,
			"uri":"lair_catFainted.bin"
		}
	]
}
