{
	"asset":{
		"generator":"Khronos glTF Blender I/O v4.2.57",
		"version":"2.0"
	},
	"scene":0,
	"scenes":[
		{
			"name":"Scene",
			"nodes":[
				0
			]
		}
	],
	"nodes":[
		{
			"mesh":0,
			"name":"witch table",
			"translation":[
				-11.742107391357422,
				-0.00023126602172851562,
				-10.169713020324707
			]
		}
	],
	"meshes":[
		{
			"name":"Cube.004",
			"primitives":[
				{
					"attributes":{
						"POSITION":0,
						"NORMAL":1,
						"TEXCOORD_0":2
					},
					"indices":3
				}
			]
		}
	],
	"accessors":[
		{
			"bufferView":0,
			"componentType":5126,
			"count":923,
			"max":[
				0.7482316493988037,
				2.167001962661743,
				1.08536958694458
			],
			"min":[
				-0.7482306957244873,
				-0.007938789203763008,
				-1.0853686332702637
			],
			"type":"VEC3"
		},
		{
			"bufferView":1,
			"componentType":5126,
			"count":923,
			"type":"VEC3"
		},
		{
			"bufferView":2,
			"componentType":5126,
			"count":923,
			"type":"VEC2"
		},
		{
			"bufferView":3,
			"componentType":5123,
			"count":1908,
			"type":"SCALAR"
		}
	],
	"bufferViews":[
		{
			"buffer":0,
			"byteLength":11076,
			"byteOffset":0,
			"target":34962
		},
		{
			"buffer":0,
			"byteLength":11076,
			"byteOffset":11076,
			"target":34962
		},
		{
			"buffer":0,
			"byteLength":7384,
			"byteOffset":22152,
			"target":34962
		},
		{
			"buffer":0,
			"byteLength":3816,
			"byteOffset":29536,
			"target":34963
		}
	],
	"buffers":[
		{
			"byteLength":33352,
			"uri":"lair_table.bin"
		}
	]
}
