{
	"asset":{
		"generator":"Khronos glTF Blender I/O v4.2.57",
		"version":"2.0"
	},
	"scene":0,
	"scenes":[
		{
			"name":"Scene",
			"nodes":[
				0
			]
		}
	],
	"nodes":[
		{
			"mesh":0,
			"name":"Cat-body-bones",
			"translation":[
				-7.958863258361816,
				-0.0003385692834854126,
				-11.648761749267578
			]
		}
	],
	"meshes":[
		{
			"name":"Cube.007",
			"primitives":[
				{
					"attributes":{
						"POSITION":0,
						"NORMAL":1,
						"TEXCOORD_0":2,
						"TANGENT":3
					},
					"indices":4
				}
			]
		}
	],
	"accessors":[
		{
			"bufferView":0,
			"componentType":5126,
			"count":764,
			"max":[
				0.4612484574317932,
				0.27671846747398376,
				0.4944041967391968
			],
			"min":[
				-0.6478772163391113,
				-0.0027537131682038307,
				-0.4092450439929962
			],
			"type":"VEC3"
		},
		{
			"bufferView":1,
			"componentType":5126,
			"count":764,
			"type":"VEC3"
		},
		{
			"bufferView":2,
			"componentType":5126,
			"count":764,
			"type":"VEC2"
		},
		{
			"bufferView":3,
			"componentType":5126,
			"count":764,
			"type":"VEC4"
		},
		{
			"bufferView":4,
			"componentType":5123,
			"count":1482,
			"type":"SCALAR"
		}
	],
	"bufferViews":[
		{
			"buffer":0,
			"byteLength":9168,
			"byteOffset":0,
			"target":34962
		},
		{
			"buffer":0,
			"byteLength":9168,
			"byteOffset":9168,
			"target":34962
		},
		{
			"buffer":0,
			"byteLength":6112,
			"byteOffset":18336,
			"target":34962
		},
		{
			"buffer":0,
			"byteLength":12224,
			"byteOffset":24448,
			"target":34962
		},
		{
			"buffer":0,
			"byteLength":2964,
			"byteOffset":36672,
			"target":34963
		}
	],
	"buffers":[
		{
			"byteLength":39636,
			"uri":"lair_catFainted.bin"
		}
	]
}
