{
	"asset":{
		"generator":"Khronos glTF Blender I/O v4.2.57",
		"version":"2.0"
	},
	"scene":0,
	"scenes":[
		{
			"name":"Scene",
			"nodes":[
				0
			]
		}
	],
	"nodes":[
		{
			"mesh":0,
			"name":"chest",
			"translation":[
				-4.872583389282227,
				-1.1682510375976562e-05,
				-6.923013210296631
			]
		}
	],
	"meshes":[
		{
			"name":"Cube.013",
			"primitives":[
				{
					"attributes":{
						"POSITION":0,
						"NORMAL":1,
						"TEXCOORD_0":2
					},
					"indices":3
				}
			]
		}
	],
	"accessors":[
		{
			"bufferView":0,
			"componentType":5126,
			"count":1523,
			"max":[
				1.2026572227478027,
				2.07869291305542,
				0.359549343585968
			],
			"min":[
				-0.6797426342964172,
				0,
				-0.34809210896492004
			],
			"type":"VEC3"
		},
		{
			"bufferView":1,
			"componentType":5126,
			"count":1523,
			"type":"VEC3"
		},
		{
			"bufferView":2,
			"componentType":5126,
			"count":1523,
			"type":"VEC2"
		},
		{
			"bufferView":3,
			"componentType":5123,
			"count":2334,
			"type":"SCALAR"
		}
	],
	"bufferViews":[
		{
			"buffer":0,
			"byteLength":18276,
			"byteOffset":0,
			"target":34962
		},
		{
			"buffer":0,
			"byteLength":18276,
			"byteOffset":18276,
			"target":34962
		},
		{
			"buffer":0,
			"byteLength":12184,
			"byteOffset":36552,
			"target":34962
		},
		{
			"buffer":0,
			"byteLength":4668,
			"byteOffset":48736,
			"target":34963
		}
	],
	"buffers":[
		{
			"byteLength":53404,
			"uri":"lair_chest.bin"
		}
	]
}
