{
	"asset":{
		"generator":"Khronos glTF Blender I/O v4.2.57",
		"version":"2.0"
	},
	"scene":0,
	"scenes":[
		{
			"name":"Scene",
			"nodes":[
				0
			]
		}
	],
	"nodes":[
		{
			"mesh":0,
			"name":"trunk1",
			"translation":[
				-3.5153708457946777,
				0.07273067533969879,
				-6.07025671005249
			]
		}
	],
	"meshes":[
		{
			"name":"Cylinder.003",
			"primitives":[
				{
					"attributes":{
						"POSITION":0,
						"NORMAL":1,
						"TEXCOORD_0":2
					},
					"indices":3
				}
			]
		}
	],
	"accessors":[
		{
			"bufferView":0,
			"componentType":5126,
			"count":3305,
			"max":[
				0.6007959842681885,
				0.6822444200515747,
				0.5615837574005127
			],
			"min":[
				-0.591756284236908,
				-0.07300258427858353,
				-0.5682419538497925
			],
			"type":"VEC3"
		},
		{
			"bufferView":1,
			"componentType":5126,
			"count":3305,
			"type":"VEC3"
		},
		{
			"bufferView":2,
			"componentType":5126,
			"count":3305,
			"type":"VEC2"
		},
		{
			"bufferView":3,
			"componentType":5123,
			"count":5064,
			"type":"SCALAR"
		}
	],
	"bufferViews":[
		{
			"buffer":0,
			"byteLength":39660,
			"byteOffset":0,
			"target":34962
		},
		{
			"buffer":0,
			"byteLength":39660,
			"byteOffset":39660,
			"target":34962
		},
		{
			"buffer":0,
			"byteLength":26440,
			"byteOffset":79320,
			"target":34962
		},
		{
			"buffer":0,
			"byteLength":10128,
			"byteOffset":105760,
			"target":34963
		}
	],
	"buffers":[
		{
			"byteLength":115888,
			"uri":"lair_cauldron.bin"
		}
	]
}
