{
	"asset":{
		"generator":"Khronos glTF Blender I/O v4.2.57",
		"version":"2.0"
	},
	"scene":0,
	"scenes":[
		{
			"name":"Scene",
			"nodes":[
				0
			]
		}
	],
	"nodes":[
		{
			"mesh":0,
			"name":"Leaf",
			"translation":[
				0.24432361125946045,
				0.5006960034370422,
				0.2732485234737396
			]
		}
	],
	"meshes":[
		{
			"name":"Plane.016",
			"primitives":[
				{
					"attributes":{
						"POSITION":0,
						"NORMAL":1,
						"TEXCOORD_0":2
					},
					"indices":3
				}
			]
		}
	],
	"accessors":[
		{
			"bufferView":0,
			"componentType":5126,
			"count":230,
			"max":[
				0.15361128747463226,
				0.1546325534582138,
				0.2347385585308075
			],
			"min":[
				-0.15084777772426605,
				-0.15143655240535736,
				-0.24644142389297485
			],
			"type":"VEC3"
		},
		{
			"bufferView":1,
			"componentType":5126,
			"count":230,
			"type":"VEC3"
		},
		{
			"bufferView":2,
			"componentType":5126,
			"count":230,
			"type":"VEC2"
		},
		{
			"bufferView":3,
			"componentType":5123,
			"count":588,
			"type":"SCALAR"
		}
	],
	"bufferViews":[
		{
			"buffer":0,
			"byteLength":2760,
			"byteOffset":0,
			"target":34962
		},
		{
			"buffer":0,
			"byteLength":2760,
			"byteOffset":2760,
			"target":34962
		},
		{
			"buffer":0,
			"byteLength":1840,
			"byteOffset":5520,
			"target":34962
		},
		{
			"buffer":0,
			"byteLength":1176,
			"byteOffset":7360,
			"target":34963
		}
	],
	"buffers":[
		{
			"byteLength":8536,
			"uri":"coll_leaf.bin"
		}
	]
}
