{
	"asset":{
		"generator":"Khronos glTF Blender I/O v4.2.57",
		"version":"2.0"
	},
	"scene":0,
	"scenes":[
		{
			"name":"Scene",
			"nodes":[
				0
			]
		}
	],
	"nodes":[
		{
			"mesh":0,
			"name":"Eye Bulb",
			"translation":[
				-3.4585018157958984,
				0.4550222158432007,
				0.27492690086364746
			]
		}
	],
	"meshes":[
		{
			"name":"Sphere.019",
			"primitives":[
				{
					"attributes":{
						"POSITION":0,
						"NORMAL":1,
						"TEXCOORD_0":2
					},
					"indices":3
				}
			]
		}
	],
	"accessors":[
		{
			"bufferView":0,
			"componentType":5126,
			"count":75,
			"max":[
				0.1351073533296585,
				0.1351073533296585,
				0.1284947395324707
			],
			"min":[
				-0.1351073533296585,
				-0.13510732352733612,
				-0.12849470973014832
			],
			"type":"VEC3"
		},
		{
			"bufferView":1,
			"componentType":5126,
			"count":75,
			"type":"VEC3"
		},
		{
			"bufferView":2,
			"componentType":5126,
			"count":75,
			"type":"VEC2"
		},
		{
			"bufferView":3,
			"componentType":5123,
			"count":300,
			"type":"SCALAR"
		}
	],
	"bufferViews":[
		{
			"buffer":0,
			"byteLength":900,
			"byteOffset":0,
			"target":34962
		},
		{
			"buffer":0,
			"byteLength":900,
			"byteOffset":900,
			"target":34962
		},
		{
			"buffer":0,
			"byteLength":600,
			"byteOffset":1800,
			"target":34962
		},
		{
			"buffer":0,
			"byteLength":600,
			"byteOffset":2400,
			"target":34963
		}
	],
	"buffers":[
		{
			"byteLength":3000,
			"uri":"coll_eye.bin"
		}
	]
}
