{
	"asset":{
		"generator":"Khronos glTF Blender I/O v4.2.57",
		"version":"2.0"
	},
	"scene":0,
	"scenes":[
		{
			"name":"Scene",
			"nodes":[
				0
			]
		}
	],
	"nodes":[
		{
			"mesh":0,
			"name":"Potion1",
			"translation":[
				-2.0070133209228516,
				0.3448321223258972,
				-0.026764746755361557
			]
		}
	],
	"meshes":[
		{
			"name":"Sphere.020",
			"primitives":[
				{
					"attributes":{
						"POSITION":0,
						"NORMAL":1,
						"TEXCOORD_0":2
					},
					"indices":3
				}
			]
		}
	],
	"accessors":[
		{
			"bufferView":0,
			"componentType":5126,
			"count":464,
			"max":[
				0.11310259252786636,
				0.4372611939907074,
				0.11892310529947281
			],
			"min":[
				-0.11310260742902756,
				-0.07941639423370361,
				-0.11892310529947281
			],
			"type":"VEC3"
		},
		{
			"bufferView":1,
			"componentType":5126,
			"count":464,
			"type":"VEC3"
		},
		{
			"bufferView":2,
			"componentType":5126,
			"count":464,
			"type":"VEC2"
		},
		{
			"bufferView":3,
			"componentType":5123,
			"count":1320,
			"type":"SCALAR"
		}
	],
	"bufferViews":[
		{
			"buffer":0,
			"byteLength":5568,
			"byteOffset":0,
			"target":34962
		},
		{
			"buffer":0,
			"byteLength":5568,
			"byteOffset":5568,
			"target":34962
		},
		{
			"buffer":0,
			"byteLength":3712,
			"byteOffset":11136,
			"target":34962
		},
		{
			"buffer":0,
			"byteLength":2640,
			"byteOffset":14848,
			"target":34963
		}
	],
	"buffers":[
		{
			"byteLength":17488,
			"uri":"coll_potion2.bin"
		}
	]
}
