{
	"asset":{
		"generator":"Khronos glTF Blender I/O v4.2.57",
		"version":"2.0"
	},
	"scene":0,
	"scenes":[
		{
			"name":"Scene",
			"nodes":[
				0
			]
		}
	],
	"nodes":[
		{
			"mesh":0,
			"name":"fridge",
			"translation":[
				0.6931226849555969,
				0,
				11.92654800415039
			]
		}
	],
	"meshes":[
		{
			"name":"Cube.015",
			"primitives":[
				{
					"attributes":{
						"POSITION":0,
						"NORMAL":1,
						"TEXCOORD_0":2
					},
					"indices":3
				}
			]
		}
	],
	"accessors":[
		{
			"bufferView":0,
			"componentType":5126,
			"count":203,
			"max":[
				0.7467992305755615,
				2.7102344036102295,
				0.6210606098175049
			],
			"min":[
				-0.7467992305755615,
				0,
				-0.8976445198059082
			],
			"type":"VEC3"
		},
		{
			"bufferView":1,
			"componentType":5126,
			"count":203,
			"type":"VEC3"
		},
		{
			"bufferView":2,
			"componentType":5126,
			"count":203,
			"type":"VEC2"
		},
		{
			"bufferView":3,
			"componentType":5123,
			"count":336,
			"type":"SCALAR"
		}
	],
	"bufferViews":[
		{
			"buffer":0,
			"byteLength":2436,
			"byteOffset":0,
			"target":34962
		},
		{
			"buffer":0,
			"byteLength":2436,
			"byteOffset":2436,
			"target":34962
		},
		{
			"buffer":0,
			"byteLength":1624,
			"byteOffset":4872,
			"target":34962
		},
		{
			"buffer":0,
			"byteLength":672,
			"byteOffset":6496,
			"target":34963
		}
	],
	"buffers":[
		{
			"byteLength":7168,
			"uri":"kitchen_fridge.bin"
		}
	]
}
