{
	"asset":{
		"generator":"Khronos glTF Blender I/O v4.2.57",
		"version":"2.0"
	},
	"scene":0,
	"scenes":[
		{
			"name":"Scene",
			"nodes":[
				0
			]
		}
	],
	"nodes":[
		{
			"mesh":0,
			"name":"counter",
			"translation":[
				9.205811500549316,
				0.002800166606903076,
				11.686162948608398
			]
		}
	],
	"meshes":[
		{
			"name":"Cube.014",
			"primitives":[
				{
					"attributes":{
						"POSITION":0,
						"NORMAL":1,
						"TEXCOORD_0":2
					},
					"indices":3
				}
			]
		}
	],
	"accessors":[
		{
			"bufferView":0,
			"componentType":5126,
			"count":1110,
			"max":[
				2.6865618228912354,
				3.33204984664917,
				0.7966194152832031
			],
			"min":[
				-2.2831807136535645,
				-0.002800166606903076,
				-0.9248373508453369
			],
			"type":"VEC3"
		},
		{
			"bufferView":1,
			"componentType":5126,
			"count":1110,
			"type":"VEC3"
		},
		{
			"bufferView":2,
			"componentType":5126,
			"count":1110,
			"type":"VEC2"
		},
		{
			"bufferView":3,
			"componentType":5123,
			"count":2352,
			"type":"SCALAR"
		}
	],
	"bufferViews":[
		{
			"buffer":0,
			"byteLength":13320,
			"byteOffset":0,
			"target":34962
		},
		{
			"buffer":0,
			"byteLength":13320,
			"byteOffset":13320,
			"target":34962
		},
		{
			"buffer":0,
			"byteLength":8880,
			"byteOffset":26640,
			"target":34962
		},
		{
			"buffer":0,
			"byteLength":4704,
			"byteOffset":35520,
			"target":34963
		}
	],
	"buffers":[
		{
			"byteLength":40224,
			"uri":"kitchen_kitchen.bin"
		}
	]
}
