{
	"asset":{
		"generator":"Khronos glTF Blender I/O v4.2.57",
		"version":"2.0"
	},
	"scene":0,
	"scenes":[
		{
			"name":"Scene",
			"nodes":[
				0
			]
		}
	],
	"nodes":[
		{
			"mesh":0,
			"name":"kitchen table",
			"translation":[
				4.987317085266113,
				-5.602836608886719e-06,
				3.10186767578125
			]
		}
	],
	"meshes":[
		{
			"name":"Plane.003",
			"primitives":[
				{
					"attributes":{
						"POSITION":0,
						"NORMAL":1,
						"TEXCOORD_0":2
					},
					"indices":3
				}
			]
		}
	],
	"accessors":[
		{
			"bufferView":0,
			"componentType":5126,
			"count":507,
			"max":[
				1.390808343887329,
				1.617556095123291,
				0.9333838224411011
			],
			"min":[
				-1.390808343887329,
				-9.548664093017578e-05,
				-0.9333838224411011
			],
			"type":"VEC3"
		},
		{
			"bufferView":1,
			"componentType":5126,
			"count":507,
			"type":"VEC3"
		},
		{
			"bufferView":2,
			"componentType":5126,
			"count":507,
			"type":"VEC2"
		},
		{
			"bufferView":3,
			"componentType":5123,
			"count":918,
			"type":"SCALAR"
		}
	],
	"bufferViews":[
		{
			"buffer":0,
			"byteLength":6084,
			"byteOffset":0,
			"target":34962
		},
		{
			"buffer":0,
			"byteLength":6084,
			"byteOffset":6084,
			"target":34962
		},
		{
			"buffer":0,
			"byteLength":4056,
			"byteOffset":12168,
			"target":34962
		},
		{
			"buffer":0,
			"byteLength":1836,
			"byteOffset":16224,
			"target":34963
		}
	],
	"buffers":[
		{
			"byteLength":18060,
			"uri":"kitchen_table.bin"
		}
	]
}
